<svg width="106" height="160" viewBox="0 0 106 160" fill="none" xmlns="http://www.w3.org/2000/svg">
<g opacity="0.8" clip-path="url(#clip0_7_87)">
<path d="M22.2551 75.1298C25.0127 79.9377 28.8101 81.9573 33.6472 81.1886C36.9712 80.3907 37.7885 78.9606 36.0992 76.8985C34.4079 74.9232 32.6475 74.2082 30.8181 74.7535C29.6583 75.6218 29.5577 76.6379 30.5163 77.8017C32.3922 79.2882 34.0771 79.8777 35.5711 79.5704M35.0052 82.2047C46.1659 82.4039 54.5151 79.3933 60.0529 73.1729C60.9104 75.4276 62.7463 76.381 65.5604 76.033C71.5788 74.8506 73.817 72.0658 72.275 67.6786C70.7158 64.7182 69.9362 63.238 69.9362 63.238C69.376 61.9002 69.6778 61.3232 70.8416 61.507C71.6438 62.1916 72.1468 62.869 72.3505 63.5391C73.0736 65.6448 74.0796 66.2971 75.3682 65.496C77.0351 64.1941 76.5824 62.3626 74.0102 60.0017C70.6845 56.996 68.2451 54.0356 66.6921 51.1204C65.2995 47.4864 66.0288 46.3073 68.88 47.583C70.1845 48.6944 71.7437 51.0276 73.5576 54.5826C75.3725 58.6112 77.0574 60.2921 78.6124 59.6253C81.4965 59.2898 81.1444 57.2326 77.5562 53.4536C73.7337 48.6367 71.8224 46.2282 71.8224 46.2282M37.1177 71.3666C40.6865 75.0854 44.2827 76.6158 47.9063 75.9577C50.1673 74.7692 49.8907 73.5649 47.0764 72.345C44.7243 72.0813 42.9388 71.4792 41.7198 70.5387C39.8164 68.3893 40.6966 67.8625 44.3604 68.9581C46.7694 70.5612 49.6866 72.1919 53.112 73.8503C56.7577 74.8822 57.4115 73.6278 55.0736 70.0871C54.4917 68.9696 53.3851 68.1417 51.754 67.6034M41.0409 56.1631C44.8231 63.2749 50.4563 66.5615 57.9406 66.0228C63.8768 66.0413 65.6875 64.0092 63.3726 59.9264C61.1281 56.9531 58.3366 54.093 54.9982 51.3462C50.3513 48.311 49.4962 46.6803 52.4331 46.454C54.3627 46.5861 55.6578 46.9499 56.3185 47.5453C58.2614 49.2495 59.5817 49.5756 60.2794 48.5238C61.3131 46.9094 59.4522 44.9024 54.6966 42.5026C47.6169 40.0111 46.6865 38.6313 51.9051 38.363C57.1518 40.315 59.566 40.6662 59.1478 39.4168C59.4289 38.5239 58.4733 37.2695 56.2809 35.6535C55.4009 35.2523 53.9423 34.9261 51.9051 34.6751C49.5153 33.6732 49.4901 32.5443 51.8297 31.2882C53.2971 31.0305 55.4096 31.5573 58.167 32.8687C59.8174 33.888 62.2316 35.3181 65.4098 37.1588C67.7377 37.8017 67.6189 36.6225 65.0533 33.6212C61.9353 31.1859 58.7415 29.4298 55.4719 28.3527C51.1168 26.491 51.0414 25.362 55.2455 24.9658M17.7287 159.614C14.1284 155.964 10.3561 152.652 6.41195 149.679C4.36027 147.911 2.75078 146.556 1.58348 145.615C1.03076 144.748 3.64617 140.709 9.42973 133.498C23.427 112.276 42.2631 95.8679 65.938 84.2745C68.8883 83.1463 73.6916 83.2718 80.348 84.6508C82.4638 84.9604 82.7907 86.0391 81.3288 87.8872C76.7227 94.0622 74.6605 98.8289 75.1423 102.187M9.80727 110.542C6.82733 109.451 4.51367 109.049 2.86633 109.338C0.909144 109.345 0.557061 110.474 1.8101 112.725C4.66409 118.091 6.95258 121.352 8.67557 122.509C9.8631 123.206 10.8942 122.88 11.7688 121.53C13.5165 118.283 13.6674 115.373 12.2215 112.8C9.6566 109 7.4687 105.94 5.65779 103.617C3.73668 101.429 3.91273 100.877 6.18589 101.962C9.11682 103.007 12.2855 103.81 15.6919 104.37C17.871 105.28 19.5811 104.904 20.8222 103.241C23.1294 100.739 27.9202 97.6654 35.1945 94.0212C40.5016 90.5459 46.1349 86.9708 52.0942 83.2959C52.935 82.5988 53.9661 82.2727 55.1874 82.3175C64.5304 81.4854 73.3575 78.5501 81.6687 73.5115M85.441 85.4032C88.0729 90.8528 90.5122 93.5373 92.7592 93.4565C95.1063 93.976 95.911 93.2234 95.1734 91.1986C93.8659 86.7556 90.1439 81.5624 84.0076 75.6188C82.8356 74.024 83.1876 73.1459 85.0638 72.9845C85.6182 72.9402 86.8756 73.5172 88.8361 74.7156C92.9036 75.8779 95.4939 73.9963 96.6069 69.0708C92.723 59.6173 87.8132 53.5209 81.8775 50.7815C78.7402 48.4026 76.4517 46.4708 75.012 44.9861C72.5984 41.643 72.8247 40.8151 75.691 42.5024C82.1746 46.4163 87.4307 47.0184 91.4593 44.3088C93.8991 40.6368 93.0441 37.8018 88.8942 35.8039C81.7433 33.907 77.8453 32.3515 77.2002 31.1375C74.5855 28.5701 74.6357 27.0648 77.3511 26.6216C84.879 27.0036 89.7074 24.8209 91.8364 20.0736C94.4711 14.8375 92.409 11.4255 85.6499 9.83759C81.8196 10.9986 79.2041 12.6544 77.8037 14.8051C66.302 11.5734 61.373 14.2829 63.0165 22.9336M22.9727 27.6751C22.0749 29.4386 21.5971 30.8686 21.5393 31.9652C21.1275 33.3836 20.1971 34.4122 18.7479 35.0511C16.0989 36.3968 15.0175 38.1278 15.5037 40.2443C15.956 47.0227 15.3524 51.1622 13.693 52.663C9.17538 56.7006 5.62948 60.4639 3.05533 63.9527C0.132124 67.6307 -0.245106 69.8134 1.92366 70.5007C3.33053 70.708 4.49993 70.7456 5.43184 70.6136C6.26001 70.5027 7.25338 70.7034 8.41192 71.2157C10.7627 72.2115 12.2967 72.0987 13.014 70.877C13.7096 69.7424 13.8102 68.6761 13.3158 67.6783M23.6896 47.8461C21.8698 48.9948 21.2159 50.2492 21.7281 51.6093C22.4507 53.3205 23.5447 53.9853 25.0099 53.6038C25.8573 52.9809 26.1843 52.1028 25.9907 50.9695M21.8413 50.4051C25.891 50.3626 29.1477 51.893 31.6114 54.9962M23.0107 54.9209C24.6404 55.3763 27.4571 55.3324 28.8954 54.6763M19.8423 40.8088C22.4509 43.5113 25.6858 44.4159 31.3854 45.2494C34.3897 45.9496 36.6907 48.0319 39.8729 51.4587M9.24255 71.9119C8.8136 73.1878 8.47558 73.8687 8.03544 74.1887C6.57767 75.2915 6.41421 76.2637 6.86606 77.6132C7.93496 80.8031 10.4309 82.0513 14.6935 81.4141M8.84652 80.9813C8.30842 81.964 8.23298 83.118 8.62018 84.4435C9.68535 85.761 10.4775 86.6633 11.8014 87.9299C12.4968 88.691 12.8932 90.1622 13.4864 92.5909C13.5411 95.2891 13.6147 96.5703 14.2409 97.1444C14.9459 97.7415 15.8135 98.1805 16.8437 98.4615M30.8012 25.4926C24.5742 28.0401 20.5756 27.162 18.8054 22.8583C17.139 16.5857 19.2011 12.6217 24.9919 10.9665C26.0568 10.7134 27.0627 10.7636 28.0097 11.1171M28.0097 11.1171C27.8087 8.91326 30.1727 7.53338 35.1015 6.97749C40.2486 7.17132 44.9514 8.02432 49.2097 9.5365M28.0097 11.1171C27.2001 16.9117 31.4502 21.2771 40.76 24.2131M32.9136 23.912C35.0592 26.9401 38.2279 27.9185 42.4197 26.8474C44.1991 25.2134 43.5955 23.2064 40.609 20.8262C37.7547 19.525 36.5978 17.7688 37.1386 15.5577C37.3521 13.8922 38.4838 13.0392 40.5336 12.9987C45.4075 13.7058 46.0865 12.9281 42.5706 10.6655M20.8425 27.299C16.9999 29.8096 14.0324 29.5587 11.94 26.5463C9.89725 23.1424 10.1487 19.4544 12.6945 15.4824C13.5482 14.8144 14.4284 14.413 15.335 14.2782C13.4875 12.8053 12.6828 10.4972 12.9208 7.35383C12.7558 3.44566 16.704 1.63931 24.7656 1.93478C27.7771 2.69674 30.5183 4.05151 32.9891 5.99907M72.2206 22.3315C74.8139 29.8826 73.4559 32.3914 68.1466 29.858C61.3378 27.577 55.4029 24.1148 50.3417 19.4715C47.0821 14.8225 48.8173 10.8836 55.5474 7.65492C63.9288 6.99001 69.1848 8.79636 71.3153 13.074M37.9688 5.47224C43.3372 2.61544 47.7633 2.4649 51.2471 5.02066C52.0819 -1.03007 58.8216 -0.879531 71.4663 5.47224C76.1488 3.1015 78.673 5.7193 79.039 13.3257M91.368 21.0005C95.8686 20.4537 98.087 22.5281 98.0231 27.2237C97.8477 28.9961 97.6214 30.2254 97.3441 30.9117C99.7639 30.7153 101.172 31.8192 101.569 34.2234C101.739 37.9675 100.758 40.652 98.6267 42.2767M98.6267 42.2767C96.595 44.7498 93.8362 45.6428 90.3503 44.9557M98.6267 42.2767C104.351 45.8545 105.407 50.1446 101.795 55.147C99.2908 57.9526 96.0718 58.4042 92.1384 56.5017M98.3497 57.4121C105.884 61.2409 107.435 64.9014 103.003 68.3935C102.078 68.6236 100.984 68.8243 99.7207 68.9957C101.828 71.2842 102.897 73.3163 102.927 75.0921C102.983 79.8295 100.568 82.2631 95.6844 82.3928M78.8603 103.091C81.7433 115.195 85.1635 123.826 89.1208 128.982M81.8119 113.701C72.3027 113.294 59.7004 116.481 44.0048 123.261C31.3828 129.589 23.5114 133.528 20.3905 135.078C18.1601 136.402 18.3865 136.904 21.0695 136.583C33.0524 133.689 42.7345 131.657 50.1158 130.487C62.8191 127.828 74.4879 127.501 85.1222 129.508C90.7208 130.676 96.2535 133.235 101.72 137.185" stroke="#C19B76" stroke-width="1.06674"/>
</g>
<defs>
<clipPath id="clip0_7_87">
<rect width="106" height="160" fill="white"/>
</clipPath>
</defs>
</svg>
