<svg width="53" height="80" viewBox="0 0 53 80" fill="none" xmlns="http://www.w3.org/2000/svg">
<g opacity="0.8" clip-path="url(#clip0_65_77)">
<path d="M11.127 37.5644C12.5059 39.9684 14.4046 40.9782 16.8231 40.5938C18.4851 40.1948 18.8937 39.4798 18.0491 38.4488C17.2035 37.4611 16.3233 37.1036 15.4085 37.3763C14.8287 37.8104 14.7783 38.3184 15.2577 38.9004C16.1956 39.6436 17.0381 39.9384 17.7851 39.7847M17.5021 41.1019C23.0825 41.2014 27.2571 39.6962 30.026 36.586C30.4547 37.7133 31.3726 38.19 32.7797 38.016C35.7889 37.4248 36.908 36.0324 36.137 33.8388C35.3574 32.3586 34.9676 31.6185 34.9676 31.6185C34.6875 30.9496 34.8384 30.6611 35.4203 30.753C35.8214 31.0953 36.0729 31.434 36.1747 31.7691C36.5363 32.8219 37.0393 33.1481 37.6836 32.7475C38.5171 32.0965 38.2907 31.1808 37.0046 30.0003C35.3418 28.4975 34.1221 27.0173 33.3456 25.5597C32.6493 23.7427 33.0139 23.1532 34.4395 23.791C35.0918 24.3467 35.8714 25.5133 36.7783 27.2908C37.6858 29.3051 38.5282 30.1456 39.3057 29.8122C40.7477 29.6444 40.5717 28.6158 38.7776 26.7263C36.8663 24.3179 35.9107 23.1136 35.9107 23.1136M18.5584 35.6828C20.3428 37.5422 22.1409 38.3074 23.9527 37.9784C25.0832 37.3841 24.9448 36.782 23.5377 36.172C22.3617 36.0402 21.4689 35.7391 20.8594 35.2689C19.9077 34.1942 20.3478 33.9307 22.1797 34.4786C23.3842 35.2801 24.8428 36.0955 26.5555 36.9247C28.3784 37.4406 28.7053 36.8134 27.5363 35.0431C27.2453 34.4843 26.6921 34.0704 25.8765 33.8012M20.52 28.0811C22.411 31.637 25.2277 33.2802 28.9698 33.0109C31.9379 33.0202 32.8432 32.0041 31.6858 29.9627C30.5635 28.4761 29.1678 27.046 27.4986 25.6726C25.1751 24.155 24.7476 23.3397 26.2161 23.2265C27.1808 23.2926 27.8284 23.4745 28.1588 23.7722C29.1302 24.6243 29.7904 24.7873 30.1392 24.2614C30.6561 23.4542 29.7256 22.4507 27.3478 21.2508C23.808 20.0051 23.3427 19.3152 25.9521 19.181C28.5754 20.157 29.7825 20.3326 29.5734 19.7079C29.714 19.2615 29.2362 18.6342 28.14 17.8263C27.7 17.6257 26.9707 17.4626 25.9521 17.3371C24.7571 16.8361 24.7446 16.2716 25.9143 15.6436C26.6481 15.5147 27.7043 15.7782 29.083 16.4339C29.9082 16.9435 31.1153 17.6585 32.7044 18.5789C33.8684 18.9003 33.809 18.3107 32.5262 16.8101C30.9671 15.5925 29.3702 14.7144 27.7354 14.1759C25.5579 13.245 25.5202 12.6805 27.6223 12.4824M8.86385 79.8067C7.06369 77.9815 5.17758 76.3256 3.20548 74.8392C2.17965 73.9549 1.3749 73.2775 0.791253 72.8071C0.514892 72.3737 1.8226 70.3541 4.71438 66.7483C11.713 56.1373 21.1311 47.9335 32.9685 42.1368C34.4437 41.5727 36.8453 41.6354 40.1735 42.3249C41.2314 42.4797 41.3949 43.0191 40.6639 43.9431C38.3608 47.0306 37.3298 49.414 37.5707 51.0932M4.90314 55.2704C3.41318 54.7249 2.25635 54.5242 1.43268 54.6683C0.454084 54.6722 0.278042 55.2367 0.904561 56.3618C2.33156 59.045 3.4758 60.6757 4.3373 61.254C4.93106 61.6024 5.4466 61.4393 5.88392 60.7647C6.75778 59.1409 6.83322 57.6858 6.11026 56.3994C4.82781 54.4997 3.73386 52.9693 2.8284 51.8083C1.86785 50.7139 1.95588 50.438 3.09246 50.9803C4.55792 51.5031 6.14226 51.9045 7.84548 52.1846C8.93503 52.6395 9.79007 52.4513 10.4106 51.6201C11.5642 50.3689 13.9596 48.8322 17.5968 47.0101C20.2503 45.2725 23.0669 43.4849 26.0466 41.6475C26.467 41.2989 26.9825 41.1359 27.5932 41.1583C32.2647 40.7422 36.6783 39.2746 40.8338 36.7553M42.72 42.7011C44.0359 45.4259 45.2556 46.7681 46.3791 46.7278C47.5526 46.9875 47.955 46.6112 47.5862 45.5988C46.9324 43.3773 45.0715 40.7807 42.0033 37.8089C41.4173 37.0115 41.5933 36.5725 42.5314 36.4918C42.8086 36.4696 43.4373 36.7581 44.4175 37.3573C46.4513 37.9385 47.7464 36.9977 48.303 34.5349C46.361 29.8081 43.9061 26.7599 40.9382 25.3903C39.3696 24.2008 38.2254 23.2349 37.5055 22.4926C36.2987 20.821 36.4119 20.407 37.845 21.2507C41.0868 23.2076 43.7149 23.5087 45.7292 22.1539C46.9491 20.3179 46.5216 18.9004 44.4466 17.9014C40.8711 16.953 38.9221 16.1753 38.5996 15.5683C37.2922 14.2846 37.3174 13.5319 38.6751 13.3103C42.439 13.5013 44.8532 12.41 45.9177 10.0363C47.2351 7.41824 46.204 5.71225 42.8245 4.9183C40.9093 5.4988 39.6016 6.32671 38.9013 7.40204C33.1505 5.78622 30.686 7.14098 31.5077 11.4663M11.4859 13.8371C11.037 14.7188 10.798 15.4338 10.7692 15.9821C10.5633 16.6913 10.098 17.2056 9.37344 17.525C8.04897 18.1979 7.50828 19.0634 7.75137 20.1217C7.97749 23.5108 7.67571 25.5806 6.84603 26.331C4.5872 28.3498 2.81425 30.2314 1.52718 31.9758C0.0655735 33.8149 -0.123041 34.9062 0.96134 35.2499C1.66478 35.3535 2.24948 35.3723 2.71543 35.3063C3.12952 35.2509 3.6262 35.3512 4.20547 35.6074C5.38084 36.1053 6.14786 36.0488 6.50654 35.438C6.85431 34.8707 6.9046 34.3376 6.65743 33.8387M11.8443 23.9225C10.9344 24.4969 10.6075 25.1241 10.8636 25.8042C11.2249 26.6597 11.7719 26.9922 12.5045 26.8014C12.9282 26.49 13.0916 26.0509 12.9949 25.4843M10.9201 25.202C12.945 25.1808 14.5734 25.946 15.8052 27.4976M11.5049 27.46C12.3197 27.6877 13.728 27.6657 14.4472 27.3377M9.92067 20.4039C11.225 21.7552 12.8424 22.2075 15.6922 22.6242C17.1943 22.9743 18.3449 24.0155 19.936 25.7289M4.62079 35.9555C4.40631 36.5934 4.2373 36.9339 4.01723 37.0938C3.28835 37.6453 3.20662 38.1313 3.43254 38.8061C3.96699 40.4011 5.21498 41.0251 7.34625 40.7066M4.42277 40.4902C4.15372 40.9815 4.116 41.5585 4.3096 42.2213C4.84219 42.88 5.23824 43.3312 5.90021 43.9645C6.24792 44.345 6.44612 45.0806 6.74272 46.295C6.77005 47.6441 6.80689 48.2846 7.11995 48.5717C7.47245 48.8702 7.90625 49.0898 8.42137 49.2303M15.4001 12.7458C12.2866 14.0196 10.2873 13.5805 9.40223 11.4287C8.56899 8.29236 9.60007 6.31038 12.4955 5.48277C13.0279 5.35622 13.5309 5.38131 14.0044 5.55804M14.0044 5.55804C13.9039 4.45614 15.0859 3.7662 17.5503 3.48826C20.1238 3.58517 22.4752 4.01167 24.6044 4.76776M14.0044 5.55804C13.5996 8.45538 15.7246 10.6381 20.3795 12.1061M16.4563 11.9555C17.5291 13.4696 19.1135 13.9588 21.2094 13.4232C22.0991 12.6062 21.7973 11.6027 20.304 10.4126C18.8768 9.762 18.2984 8.88391 18.5688 7.77835C18.6756 6.94559 19.2414 6.5191 20.2663 6.49884C22.7032 6.85241 23.0428 6.46355 21.2848 5.33224M10.4208 13.649C8.49947 14.9043 7.01572 14.7789 5.96951 13.2727C4.94814 11.5707 5.07388 9.72672 6.34674 7.74072C6.77362 7.40671 7.21371 7.206 7.66702 7.13861C6.74326 6.40216 6.34089 5.2481 6.45991 3.67643C6.37739 1.72234 8.35154 0.819168 12.3823 0.966903C13.8881 1.34788 15.2587 2.02526 16.4941 2.99905M36.1098 11.1653C37.4065 14.9408 36.7274 16.1952 34.0728 14.9285C30.6684 13.788 27.7009 12.0569 25.1703 9.73524C23.5406 7.41076 24.4082 5.44134 27.7732 3.82697C31.9639 3.49451 34.5919 4.39769 35.6572 6.5365M18.9839 2.73563C21.6681 1.30723 23.8811 1.23196 25.6231 2.50984C26.0405 -0.515521 29.4103 -0.440254 35.7327 2.73563C38.0739 1.55026 39.336 2.85916 39.519 6.66235M45.6835 10.4998C47.9338 10.2263 49.043 11.2636 49.0111 13.6114C48.9234 14.4976 48.8102 15.1122 48.6716 15.4554C49.8814 15.3572 50.5856 15.9091 50.784 17.1112C50.8688 18.9833 50.3784 20.3255 49.3128 21.1378M49.3128 21.1378C48.297 22.3744 46.9176 22.8209 45.1746 22.4773M49.3128 21.1378C52.175 22.9267 52.7032 25.0718 50.8972 27.573C49.6449 28.9758 48.0354 29.2016 46.0687 28.2504M49.1744 28.7056C52.9417 30.62 53.7171 32.4502 51.5008 34.1963C51.0383 34.3113 50.4913 34.4116 49.8599 34.4973C50.9137 35.6416 51.4481 36.6577 51.463 37.5456C51.4908 39.9143 50.2836 41.1311 47.8417 41.1959M39.4297 51.5448C40.8712 57.5972 42.5813 61.9123 44.5599 64.4903M40.9054 56.8502C36.1509 56.6465 29.8497 58.2399 22.0019 61.6302C15.6909 64.7938 11.7552 66.7633 10.1948 67.5385C9.07959 68.2007 9.19275 68.4515 10.5343 68.2912C16.5257 66.8442 21.3668 65.8281 25.0574 65.2429C31.409 63.9133 37.2435 63.7502 42.5606 64.7537C45.3599 65.3374 48.1263 66.6169 50.8596 68.5922" stroke="#C19B76" stroke-width="0.533372"/>
</g>
<defs>
<clipPath id="clip0_65_77">
<rect width="53" height="80" fill="white"/>
</clipPath>
</defs>
</svg>
