<svg width="212" height="320" viewBox="0 0 212 320" fill="none" xmlns="http://www.w3.org/2000/svg">
<path d="M44.5101 150.259C50.0254 159.875 57.6202 163.914 67.2945 162.377C73.9423 160.781 75.5769 157.921 72.1984 153.797C68.8158 149.846 65.295 148.416 61.6361 149.507C59.3166 151.243 59.1154 153.275 61.0326 155.603C64.7844 158.576 68.1542 159.755 71.1422 159.14M70.0104 164.409C92.3318 164.807 109.03 158.786 120.106 146.345C121.821 150.855 125.493 152.761 131.121 152.066C143.158 149.701 147.634 144.131 144.55 135.357C141.432 129.436 139.872 126.476 139.872 126.476C138.752 123.8 139.356 122.646 141.683 123.013C143.288 124.383 144.294 125.737 144.701 127.078C146.147 131.289 148.159 132.594 150.736 130.991C154.07 128.388 153.165 124.725 148.02 120.003C141.369 113.991 136.49 108.071 133.384 102.24C130.599 94.9724 132.058 92.6141 137.76 95.1655C140.369 97.3883 143.487 102.055 147.115 109.165C150.745 117.222 154.115 120.584 157.225 119.25C162.993 118.579 162.289 114.465 155.112 106.907C147.467 97.2729 143.645 92.4559 143.645 92.4559M74.2354 142.733C81.373 150.17 88.5654 153.231 95.8127 151.915C100.335 149.538 99.7813 147.129 94.1529 144.69C89.4486 144.162 85.8775 142.958 83.4397 141.077C79.6329 136.778 81.3932 135.724 88.7208 137.916C93.5389 141.122 99.3733 144.383 106.224 147.7C113.515 149.764 114.823 147.255 110.147 140.174C108.983 137.939 106.77 136.283 103.508 135.206M82.0818 112.326C89.6461 126.549 100.913 133.122 115.881 132.045C127.754 132.082 131.375 128.018 126.745 119.852C122.256 113.906 116.673 108.186 109.996 102.692C100.703 96.6215 98.9925 93.3601 104.866 92.9075C108.725 93.1718 111.316 93.8993 112.637 95.0902C116.523 98.4985 119.163 99.1508 120.559 97.0471C122.626 93.8184 118.904 89.8042 109.393 85.0047C95.2339 80.0218 93.3729 77.2621 103.81 76.7256C114.304 80.6294 119.132 81.3319 118.296 78.833C118.858 77.0473 116.947 74.5384 112.562 71.3065C110.802 70.5041 107.885 69.8518 103.81 69.3497C99.0305 67.346 98.9802 65.088 103.659 62.5759C106.594 62.0604 110.819 63.1141 116.334 65.737C119.635 67.7756 124.463 70.6356 130.82 74.3171C135.475 75.6028 135.238 73.2444 130.107 67.242C123.871 62.3714 117.483 58.859 110.944 56.7049C102.234 52.9814 102.083 50.7235 110.491 49.9311M35.4573 319.228C28.2567 311.927 20.7123 305.304 12.8239 299.358C8.72053 295.821 5.50156 293.112 3.16696 291.23C2.06152 289.496 7.29234 281.418 18.8595 266.995C46.854 224.551 84.5262 191.735 131.876 168.548C137.777 166.292 147.383 166.543 160.696 169.301C164.928 169.92 165.581 172.078 162.658 175.774C153.445 188.124 149.321 197.657 150.285 204.374M19.6145 221.083C13.6547 218.901 9.02735 218.098 5.73267 218.675C1.81829 218.69 1.11412 220.948 3.6202 225.449C9.32818 236.181 13.9052 242.704 17.3511 245.017C19.7262 246.411 21.7883 245.759 23.5376 243.06C27.0331 236.565 27.3348 230.745 24.443 225.599C19.3132 218 14.9374 211.879 11.3156 207.234C7.47337 202.857 7.82546 201.753 12.3718 203.923C18.2336 206.014 24.571 207.619 31.3839 208.74C35.7421 210.56 39.1622 209.807 41.6444 206.482C46.2589 201.477 55.8404 195.33 70.389 188.042C81.0032 181.091 92.2697 173.941 104.188 166.591C105.87 165.197 107.932 164.545 110.375 164.635C129.061 162.97 146.715 157.1 163.337 147.022M170.882 170.806C176.146 181.705 181.024 187.074 185.518 186.913C190.213 187.952 191.822 186.446 190.347 182.397C187.732 173.511 180.288 163.124 168.015 151.237C165.671 148.048 166.375 146.291 170.128 145.969C171.236 145.88 173.751 147.034 177.672 149.431C185.807 151.755 190.988 147.992 193.214 138.141C185.446 119.234 175.626 107.041 163.755 101.563C157.48 96.8047 152.903 92.9411 150.024 89.9718C145.197 83.2855 145.649 81.6297 151.382 85.0043C164.349 92.832 174.861 94.0363 182.919 88.6171C187.798 81.2731 186.088 75.6032 177.788 71.6073C163.487 67.8135 155.691 64.7025 154.4 62.2745C149.171 57.1398 149.271 54.1291 154.702 53.2427C169.758 54.0066 179.415 49.6413 183.673 40.1466C188.942 29.6744 184.818 22.8504 171.3 19.6747C163.639 21.9967 158.408 25.3083 155.607 29.6096C132.604 23.1463 122.746 28.5654 126.033 45.8668M45.9455 55.3498C44.1498 58.8766 43.1941 61.7367 43.0786 63.9299C42.2551 66.7667 40.3941 68.8239 37.4957 70.1017C32.1978 72.793 30.0351 76.2552 31.0074 80.4882C31.9119 94.0448 30.7048 102.324 27.3861 105.325C18.3508 113.401 11.259 120.927 6.11066 127.905C0.264247 135.261 -0.490212 139.626 3.84731 141.001C6.66107 141.415 8.99987 141.491 10.8637 141.227C12.52 141.005 14.5068 141.406 16.8238 142.431C21.5253 144.423 24.5934 144.197 26.0281 141.754C27.4192 139.484 27.6204 137.352 26.6317 135.356M47.3793 95.6916C43.7395 97.9891 42.4318 100.498 43.4562 103.218C44.9014 106.64 47.0894 107.97 50.0199 107.207C51.7147 105.961 52.3685 104.205 51.9814 101.939M43.6825 100.81C51.7821 100.725 58.2955 103.785 63.2227 109.992M46.0214 109.841C49.2809 110.752 54.9141 110.664 57.7909 109.352M39.6846 81.6171C44.9018 87.0221 51.3717 88.8313 62.7708 90.4983C68.7793 91.8987 73.3815 96.0633 79.7458 102.917M18.4851 143.823C17.6272 146.375 16.9512 147.737 16.0709 148.377C13.1553 150.583 12.8284 152.527 13.7321 155.226C15.8699 161.606 20.8619 164.102 29.3869 162.828M17.693 161.962C16.6168 163.928 16.466 166.236 17.2404 168.886C19.3707 171.521 20.9549 173.326 23.6028 175.859C24.9936 177.381 25.7864 180.324 26.9728 185.181C27.0821 190.578 27.2295 193.14 28.4817 194.288C29.8918 195.482 31.627 196.361 33.6874 196.923M61.6024 50.9847C49.1483 56.0797 41.1512 54.3235 37.6109 45.7162C34.2779 33.1709 38.4022 25.243 49.9838 21.9325C52.1136 21.4263 54.1254 21.5267 56.0194 22.2336M56.0194 22.2336C55.6175 17.826 60.3454 15.0663 70.2031 13.9545C80.4973 14.3421 89.9027 16.0482 98.4194 19.0725M56.0194 22.2336C54.4003 33.823 62.9005 42.5537 81.5199 48.4257M65.8273 47.8236C70.1185 53.8797 76.4558 55.8366 84.8394 53.6942C88.3982 50.4263 87.1911 46.4122 81.218 41.6519C75.5093 39.0495 73.1957 35.5371 74.2771 31.1148C74.7042 27.7838 76.9676 26.0778 81.0671 25.9968C90.815 27.4111 92.173 25.8557 85.1412 21.3304M41.685 54.5974C33.9998 59.6187 28.0648 59.1169 23.88 53.0922C19.7945 46.2843 20.2975 38.9083 25.3889 30.9643C27.0964 29.6283 28.8568 28.8255 30.67 28.5559C26.975 25.6101 25.3655 20.9939 25.8416 14.7072C25.5115 6.89084 33.4081 3.27814 49.5313 3.86908C55.5543 5.393 61.0366 8.10252 65.9783 11.9977M144.441 44.6626C149.628 59.7647 146.912 64.7823 136.293 59.7155C122.676 55.1535 110.806 48.2291 100.683 38.9424C94.1642 29.6445 97.6347 21.7668 111.095 15.3094C127.858 13.9795 138.37 17.5922 142.631 26.1475M75.9376 10.944C86.6743 5.23039 95.5265 4.92932 102.494 10.0408C104.164 -2.06062 117.643 -1.75955 142.933 10.944C152.298 6.20251 157.346 11.4381 158.078 26.6509M182.736 42.0005C191.737 40.9068 196.174 45.0557 196.046 54.447C195.695 57.9917 195.243 60.4504 194.688 61.8229C199.528 61.4301 202.344 63.6379 203.138 68.4462C203.477 75.9346 201.516 81.3035 197.253 84.5529M197.253 84.5529C193.19 89.4991 187.672 91.2851 180.701 89.9108M197.253 84.5529C208.702 91.7085 210.815 100.289 203.591 110.293C198.582 115.905 192.144 116.808 184.277 113.003M196.699 114.824C211.769 122.481 214.87 129.802 206.005 136.787C204.155 137.247 201.967 137.648 199.441 137.991C203.657 142.568 205.794 146.632 205.854 150.184C205.965 159.659 201.137 164.526 191.369 164.785M157.721 206.181C163.487 230.39 170.327 247.651 178.242 257.963M163.624 227.402C144.605 226.588 119.401 232.961 88.0095 246.522C62.7656 259.177 47.0228 267.055 40.781 270.156C36.3203 272.804 36.773 273.808 42.1391 273.166C66.1049 267.378 85.4691 263.314 100.232 260.973C125.638 255.655 148.976 255.002 170.244 259.016C181.442 261.351 192.507 266.469 203.44 274.37" stroke="white" stroke-width="2.13349"/>
</svg>
