<svg width="212" height="320" viewBox="0 0 212 320" fill="none" xmlns="http://www.w3.org/2000/svg">
<path d="M167.49 150.259C161.975 159.875 154.38 163.914 144.706 162.377C138.058 160.781 136.423 157.921 139.802 153.797C143.184 149.846 146.705 148.416 150.364 149.507C152.683 151.243 152.885 153.275 150.967 155.603C147.216 158.576 143.846 159.755 140.858 159.14M141.99 164.409C119.668 164.807 102.97 158.786 91.8942 146.345C90.1791 150.855 86.5075 152.761 80.8793 152.066C68.8424 149.701 64.366 144.131 67.4501 135.357C70.5684 129.436 72.1276 126.476 72.1276 126.476C73.248 123.8 72.6444 122.646 70.3169 123.013C68.7124 124.383 67.7064 125.737 67.2991 127.078C65.8527 131.289 63.8408 132.594 61.2635 130.991C57.9298 128.388 58.8351 124.725 63.9795 120.003C70.6309 113.991 75.5097 108.071 78.6158 102.24C81.401 94.9724 79.9424 92.6141 74.24 95.1655C71.6309 97.3883 68.5125 102.055 64.8849 109.165C61.255 117.222 57.8851 120.584 54.7753 119.25C49.0071 118.579 49.7112 114.465 56.8877 106.907C64.5327 97.2729 68.3552 92.4559 68.3552 92.4559M137.765 142.733C130.627 150.17 123.435 153.231 116.187 151.915C111.665 149.538 112.219 147.129 117.847 144.69C122.551 144.162 126.122 142.958 128.56 141.077C132.367 136.778 130.607 135.724 123.279 137.916C118.461 141.122 112.627 144.383 105.776 147.7C98.4846 149.764 97.1769 147.255 101.853 140.174C103.017 137.939 105.23 136.283 108.492 135.206M129.918 112.326C122.354 126.549 111.087 133.122 96.1189 132.045C84.2464 132.082 80.6251 128.018 85.2548 119.852C89.7439 113.906 95.3268 108.186 102.004 102.692C111.297 96.6215 113.008 93.3601 107.134 92.9075C103.275 93.1718 100.684 93.8993 99.3629 95.0902C95.4772 98.4985 92.8366 99.1508 91.4412 97.0471C89.3738 93.8184 93.0957 89.8042 102.607 85.0047C116.766 80.0218 118.627 77.2621 108.19 76.7256C97.6965 80.6294 92.868 81.3319 93.7044 78.833C93.1421 77.0473 95.0534 74.5384 99.4382 71.3065C101.198 70.5041 104.115 69.8518 108.19 69.3497C112.969 67.346 113.02 65.088 108.341 62.5759C105.406 62.0604 101.181 63.1141 95.666 65.737C92.3652 67.7756 87.5367 70.6356 81.1804 74.3171C76.5245 75.6028 76.7621 73.2444 81.8933 67.242C88.1294 62.3714 94.5171 58.859 101.056 56.7049C109.766 52.9814 109.917 50.7235 101.509 49.9311M176.543 319.228C183.743 311.927 191.288 305.304 199.176 299.358C203.279 295.821 206.498 293.112 208.833 291.23C209.938 289.496 204.708 281.418 193.141 266.995C165.146 224.551 127.474 191.735 80.124 168.548C74.2233 166.292 64.6167 166.543 51.304 169.301C47.0724 169.92 46.4185 172.078 49.3424 175.774C58.5547 188.124 62.679 197.657 61.7154 204.374M192.385 221.083C198.345 218.901 202.973 218.098 206.267 218.675C210.182 218.69 210.886 220.948 208.38 225.449C202.672 236.181 198.095 242.704 194.649 245.017C192.274 246.411 190.212 245.759 188.462 243.06C184.967 236.565 184.665 230.745 187.557 225.599C192.687 218 197.063 211.879 200.684 207.234C204.527 202.857 204.175 201.753 199.628 203.923C193.766 206.014 187.429 207.619 180.616 208.74C176.258 210.56 172.838 209.807 170.356 206.482C165.741 201.477 156.16 195.33 141.611 188.042C130.997 181.091 119.73 173.941 107.812 166.591C106.13 165.197 104.068 164.545 101.625 164.635C82.9391 162.97 65.285 157.1 48.6627 147.022M41.118 170.806C35.8543 181.705 30.9755 187.074 26.4817 186.913C21.7875 187.952 20.1779 186.446 21.6531 182.397C24.2683 173.511 31.7122 163.124 43.9848 151.237C46.3288 148.048 45.6247 146.291 41.8724 145.969C40.7637 145.88 38.2488 147.034 34.3279 149.431C26.1928 151.755 21.0123 147.992 18.7862 138.141C26.554 119.234 36.3737 107.041 48.2451 101.563C54.5197 96.8047 59.0966 92.9411 61.976 89.9718C66.8032 83.2855 66.3506 81.6297 60.618 85.0043C47.6507 92.832 37.1386 94.0363 29.0814 88.6171C24.2017 81.2731 25.9118 75.6032 34.2117 71.6073C48.5135 67.8135 56.3095 64.7025 57.5996 62.2745C62.8291 57.1398 62.7285 54.1291 57.2978 53.2427C42.2421 54.0066 32.5852 49.6413 28.3272 40.1466C23.0577 29.6744 27.182 22.8504 40.7002 19.6747C48.3609 21.9967 53.5917 25.3083 56.3927 29.6096C79.3959 23.1463 89.2541 28.5654 85.9671 45.8668M166.055 55.3498C167.85 58.8766 168.806 61.7367 168.921 63.9299C169.745 66.7667 171.606 68.8239 174.504 70.1017C179.802 72.793 181.965 76.2552 180.993 80.4882C180.088 94.0448 181.295 102.324 184.614 105.325C193.649 113.401 200.741 120.927 205.889 127.905C211.736 135.261 212.49 139.626 208.153 141.001C205.339 141.415 203 141.491 201.136 141.227C199.48 141.005 197.493 141.406 195.176 142.431C190.475 144.423 187.407 144.197 185.972 141.754C184.581 139.484 184.38 137.352 185.368 135.356M164.621 95.6916C168.26 97.9891 169.568 100.498 168.544 103.218C167.099 106.64 164.911 107.97 161.98 107.207C160.285 105.961 159.631 104.205 160.019 101.939M168.317 100.81C160.218 100.725 153.705 103.785 148.777 109.992M165.979 109.841C162.719 110.752 157.086 110.664 154.209 109.352M172.315 81.6171C167.098 87.0221 160.628 88.8313 149.229 90.4983C143.221 91.8987 138.619 96.0633 132.254 102.917M193.515 143.823C194.373 146.375 195.049 147.737 195.929 148.377C198.845 150.583 199.172 152.527 198.268 155.226C196.13 161.606 191.138 164.102 182.613 162.828M194.307 161.962C195.383 163.928 195.534 166.236 194.76 168.886C192.629 171.521 191.045 173.326 188.397 175.859C187.006 177.381 186.214 180.324 185.027 185.181C184.918 190.578 184.771 193.14 183.518 194.288C182.108 195.482 180.373 196.361 178.313 196.923M150.398 50.9847C162.852 56.0797 170.849 54.3235 174.389 45.7162C177.722 33.1709 173.598 25.243 162.016 21.9325C159.886 21.4263 157.875 21.5267 155.981 22.2336M155.981 22.2336C156.383 17.826 151.655 15.0663 141.797 13.9545C131.503 14.3421 122.097 16.0482 113.581 19.0725M155.981 22.2336C157.6 33.823 149.1 42.5537 130.48 48.4257M146.173 47.8236C141.882 53.8797 135.544 55.8366 127.161 53.6942C123.602 50.4263 124.809 46.4122 130.782 41.6519C136.491 39.0495 138.804 35.5371 137.723 31.1148C137.296 27.7838 135.032 26.0778 130.933 25.9968C121.185 27.4111 119.827 25.8557 126.859 21.3304M170.315 54.5974C178 59.6187 183.935 59.1169 188.12 53.0922C192.206 46.2843 191.703 38.9083 186.611 30.9643C184.904 29.6283 183.143 28.8255 181.33 28.5559C185.025 25.6101 186.634 20.9939 186.158 14.7072C186.488 6.89084 178.592 3.27814 162.469 3.86908C156.446 5.393 150.963 8.10252 146.022 11.9977M67.5587 44.6626C62.3722 59.7647 65.0883 64.7823 75.7068 59.7155C89.3243 55.1535 101.194 48.2291 111.317 38.9424C117.836 29.6445 114.365 21.7668 100.905 15.3094C84.1423 13.9795 73.6303 17.5922 69.3693 26.1475M136.062 10.944C125.326 5.23039 116.473 4.92932 109.506 10.0408C107.836 -2.06062 94.3567 -1.75955 69.0674 10.944C59.7024 6.20251 54.6539 11.4381 53.922 26.6509M29.264 42.0005C20.2628 40.9068 15.8261 45.0557 15.9538 54.447C16.3046 57.9917 16.7573 60.4504 17.3118 61.8229C12.4723 61.4301 9.65569 63.6379 8.86195 68.4462C8.52277 75.9346 10.4844 81.3035 14.7466 84.5529M14.7466 84.5529C18.8099 89.4991 24.3275 91.2851 31.2994 89.9108M14.7466 84.5529C3.29787 91.7085 1.1854 100.289 8.40926 110.293C13.4184 115.905 19.8564 116.808 27.7231 113.003M15.3005 114.824C0.231364 122.481 -2.87048 129.802 5.99499 136.787C7.84487 137.247 10.0328 137.648 12.5586 137.991C8.34316 142.568 6.20556 146.632 6.14586 150.184C6.03497 159.659 10.8635 164.526 20.6313 164.785M54.2794 206.181C48.5133 230.39 41.673 247.651 33.7584 257.963M48.3763 227.402C67.3946 226.588 92.5993 232.961 123.99 246.522C149.234 259.177 164.977 267.055 171.219 270.156C175.68 272.804 175.227 273.808 169.861 273.166C145.895 267.378 126.531 263.314 111.768 260.973C86.3619 255.655 63.0242 255.002 41.7555 259.016C30.5583 261.351 19.493 266.469 8.5598 274.37" stroke="white" stroke-width="2.13349"/>
</svg>
