<svg width="86" height="86" viewBox="0 0 86 86" fill="none" xmlns="http://www.w3.org/2000/svg">
<g clip-path="url(#clip0_7_72)">
<path d="M55.2248 48.8252C55.597 48.5776 56.0251 48.4267 56.4703 48.3862C56.9155 48.3457 57.3638 48.417 57.7745 48.5934L73.6173 55.6918C74.1513 55.92 74.5969 56.315 74.8876 56.8176C75.1783 57.3202 75.2983 57.9035 75.2298 58.4801C74.7079 62.3805 72.7872 65.9586 69.8248 68.5489C66.8625 71.1393 63.0602 72.5656 59.125 72.5626C47.0079 72.5626 35.3871 67.7491 26.8191 59.181C18.251 50.6129 13.4375 38.9922 13.4375 26.8751C13.4345 22.9399 14.8608 19.1376 17.4512 16.1752C20.0415 13.2129 23.6196 11.2922 27.52 10.7702C28.0966 10.7017 28.6798 10.8218 29.1825 11.1125C29.6851 11.4032 30.0801 11.8488 30.3083 12.3827L37.4066 28.239C37.5811 28.6462 37.6521 29.0903 37.6134 29.5316C37.5747 29.973 37.4275 30.3979 37.1849 30.7686L30.0059 39.3048C29.7513 39.689 29.6007 40.1328 29.5689 40.5927C29.5371 41.0525 29.6252 41.5128 29.8245 41.9284C32.6027 47.6159 38.4816 53.4242 44.1859 56.1755C44.6037 56.374 45.0661 56.4601 45.5274 56.4254C45.9886 56.3906 46.4329 56.2362 46.8163 55.9773L55.2248 48.8252Z" stroke="white" stroke-width="2" stroke-linecap="round" stroke-linejoin="round"/>
</g>
<defs>
<clipPath id="clip0_7_72">
<rect width="86" height="86" fill="white"/>
</clipPath>
</defs>
</svg>
