<?xml version="1.0" encoding="UTF-8" standalone="no"?>
<!-- Created with Inkscape (http://www.inkscape.org/) -->

<svg
   width="22.754168mm"
   height="22.754168mm"
   viewBox="0 0 22.754168 22.754168"
   version="1.1"
   id="svg5"
   xmlns="http://www.w3.org/2000/svg"
   xmlns:svg="http://www.w3.org/2000/svg">
  <defs
     id="defs2">
    <clipPath
       id="clip0_7_72">
      <rect
         width="70"
         height="70"
         fill="#ffffff"
         id="rect1012"
         x="0"
         y="0" />
    </clipPath>
  </defs>
  <g
     id="layer1"
     transform="translate(-72.414955,-108.30137)">
    <rect
       style="fill:none;stroke:none;stroke-width:0.247074;stroke-linecap:square"
       id="rect846"
       width="22.754168"
       height="22.754168"
       x="72.414955"
       y="108.30137" />
    <g
       style="fill:none"
       id="g1025"
       transform="matrix(0.30347122,0,0,0.30347122,72.838795,109.38876)">
      <path
         d="m 44.9504,39.7413 c 0.3029,-0.2016 0.6514,-0.3245 1.0138,-0.3574 0.3624,-0.0329 0.7273,0.025 1.0616,0.1687 l 12.8953,5.7777 c 0.4346,0.1858 0.7973,0.5072 1.0339,0.9164 0.2366,0.4091 0.3344,0.8838 0.2786,1.3531 -0.4248,3.1748 -1.9882,6.0872 -4.3994,8.1956 -2.4112,2.1085 -5.5062,3.2694 -8.7092,3.2669 -9.8627,0 -19.3215,-3.9179 -26.2955,-10.8919 -6.974,-6.974 -10.892,-16.4328 -10.892,-26.2956 -0.0024,-3.203 1.1585,-6.2979 3.2669,-8.7091 2.1085,-2.4112 5.0209,-3.97463 8.1956,-4.39945 0.4693,-0.05575 0.9441,0.04199 1.3532,0.27859 0.4091,0.2366 0.7306,0.59933 0.9163,1.03396 l 5.7778,12.9062 c 0.1419,0.3315 0.1997,0.6929 0.1682,1.0522 -0.0314,0.3592 -0.1512,0.7051 -0.3487,1.0068 l -5.8434,6.948 c -0.2072,0.3128 -0.3298,0.674 -0.3557,1.0483 -0.0259,0.3743 0.0458,0.749 0.2081,1.0873 2.2613,4.6293 7.0465,9.357 11.6894,11.5965 0.3401,0.1615 0.7165,0.2316 1.0919,0.2033 0.3755,-0.0283 0.7371,-0.154 1.0492,-0.3647 z"
         stroke="#ffffff"
         stroke-width="2"
         stroke-linecap="round"
         stroke-linejoin="round"
         id="path1008" />
    </g>
  </g>
</svg>
